<?xml version="1.0" encoding="utf-8"?>
<!-- Generator: Adobe Illustrator 23.0.1, SVG Export Plug-In . SVG Version: 6.00 Build 0)  -->
<svg version="1.1" xmlns="http://www.w3.org/2000/svg" xmlns:xlink="http://www.w3.org/1999/xlink" x="0px" y="0px" width="33.7px"
	 height="34px" viewBox="0 0 33.7 34" style="enable-background:new 0 0 33.7 34;" xml:space="preserve">
<style type="text/css">
	.st0{display:none;}
	.st1{display:inline;}
	.st2{fill:#C23334;}
	.st3{fill:#FFFFFF;}
	.st4{fill:#509D3F;}
	.st5{fill-rule:evenodd;clip-rule:evenodd;fill:#FFFFFF;}
	.st6{fill:url(#SVGID_1_);}
	.st7{fill:#FF0000;}
	.st8{fill:#4FD218;}
	.st9{fill:url(#SVGID_2_);}
	.st10{fill:#1C468E;}
</style>
<g id="Camada_1" class="st0">
	<g>
		<g class="st1">
			<path class="st2" d="M25.5,33.8H8.2c-4.5,0-8.2-3.6-8.2-8.2V8.3c0-4.5,3.6-8.2,8.2-8.2h17.4c4.5,0,8.2,3.6,8.2,8.2v17.4
				C33.7,30.2,30,33.8,25.5,33.8z"/>
			<path class="st3" d="M27.4,11.6c-0.4-1.6-1.9-2.2-3.2-2.3C23,9.1,19.1,9,16.9,9s-6.1,0.2-7.4,0.3c-1.3,0.1-2.8,0.7-3.2,2.3
				C6,13.2,5.9,14.9,5.9,17s0.1,3.8,0.4,5.5c0.3,1.6,1.9,2.2,3.2,2.3c1.2,0.1,5.1,0.3,7.4,0.3s6.1-0.2,7.4-0.3
				c1.3-0.1,2.8-0.7,3.2-2.3c0.3-1.6,0.4-3.3,0.4-5.5C27.8,14.9,27.7,13.2,27.4,11.6z"/>
			<polygon class="st2" points="13.8,20.5 19.9,17 13.8,13.6 			"/>
		</g>
	</g>
	<g id="Camada_3">
		<g class="st1">
			<path class="st4" d="M25.5,33.8H8.2c-4.5,0-8.2-3.6-8.2-8.2V8.3c0-4.5,3.6-8.2,8.2-8.2h17.4c4.5,0,8.2,3.6,8.2,8.2v17.4
				C33.7,30.2,30,33.8,25.5,33.8z"/>
			<path class="st5" d="M22.1,19.2c-0.3-0.1-1.7-0.8-1.9-0.9s-0.5-0.1-0.6,0.1c-0.2,0.3-0.7,0.9-0.9,1.1s-0.3,0.2-0.6,0.1
				s-1.2-0.4-2.3-1.4c-0.8-0.8-1.4-1.7-1.6-2c-0.2-0.3,0-0.4,0.1-0.6c0.3-0.4,0.6-0.8,0.7-1c0.1-0.2,0.1-0.4,0-0.5
				c-0.1-0.1-0.6-1.5-0.9-2.1c-0.2-0.6-0.5-0.5-0.6-0.5c-0.2,0-0.4,0-0.5,0s-0.5,0.1-0.8,0.4c-0.3,0.3-1,1-1,2.4
				c0,1.4,1,2.7,1.2,2.9c0.1,0.2,2,3,4.8,4.3c0.7,0.3,1.2,0.5,1.6,0.6c0.7,0.2,1.3,0.2,1.8,0.1c0.5-0.1,1.7-0.7,1.9-1.4
				c0.2-0.7,0.2-1.2,0.2-1.4C22.5,19.4,22.4,19.3,22.1,19.2L22.1,19.2z M16.9,26.2L16.9,26.2c-1.7,0-3.4-0.5-4.8-1.3l-0.3-0.2
				l-3.6,0.9l0.9-3.5l-0.2-0.4c-0.9-1.5-1.4-3.2-1.4-5c0-5.2,4.2-9.4,9.4-9.4c2.5,0,4.9,1,6.7,2.8c1.8,1.8,2.8,4.1,2.8,6.7
				C26.3,22,22.1,26.2,16.9,26.2L16.9,26.2z M24.9,8.8c-2.1-2.1-5-3.3-8-3.3c-6.3,0-11.3,5.1-11.3,11.3c0,2,0.5,4,1.5,5.7l-1.6,5.9
				l6-1.6c1.7,0.9,3.5,1.4,5.4,1.4l0,0c6.3,0,11.3-5.1,11.3-11.3C28.3,13.8,27.1,10.9,24.9,8.8L24.9,8.8z"/>
		</g>
	</g>
	<g id="Camada_4">
		<g class="st1">
			
				<linearGradient id="SVGID_1_" gradientUnits="userSpaceOnUse" x1="-1111.8269" y1="-410.9565" x2="-1111.5701" y2="-371.1439" gradientTransform="matrix(1 0 0 1 1128.5464 408.5049)">
				<stop  offset="0" style="stop-color:#293786"/>
				<stop  offset="0.2243" style="stop-color:#872A84"/>
				<stop  offset="0.5114" style="stop-color:#C02E5A"/>
				<stop  offset="0.5662" style="stop-color:#C03059"/>
				<stop  offset="0.6343" style="stop-color:#C23A57"/>
				<stop  offset="0.7094" style="stop-color:#C64D53"/>
				<stop  offset="0.7896" style="stop-color:#CD6A4F"/>
				<stop  offset="0.8738" style="stop-color:#DA9449"/>
				<stop  offset="0.96" style="stop-color:#EAC93F"/>
				<stop  offset="1" style="stop-color:#EDE33E"/>
			</linearGradient>
			<path class="st6" d="M25.5,33.8H8.2c-4.5,0-8.2-3.6-8.2-8.2V8.3c0-4.5,3.6-8.2,8.2-8.2h17.4c4.5,0,8.2,3.6,8.2,8.2v17.4
				C33.7,30.2,30,33.8,25.5,33.8z"/>
			<path class="st3" d="M27.8,23.5c0,2.5-2,4.5-4.5,4.5H10.4c-2.5,0-4.5-2-4.5-4.5V10.5C5.9,8,7.9,6,10.4,6h12.9
				c2.5,0,4.5,2,4.5,4.5V23.5z M23.3,3.7H10.4c-3.8,0-6.9,3.1-6.9,6.9v12.9c0,3.8,3.1,6.9,6.9,6.9h12.9c3.8,0,6.9-3.1,6.9-6.9V10.5
				C30.2,6.8,27.1,3.7,23.3,3.7z"/>
			<path class="st3" d="M16.9,21.5c-2.5,0-4.5-2-4.5-4.5s2-4.5,4.5-4.5s4.5,2,4.5,4.5S19.3,21.5,16.9,21.5z M16.9,10.2
				c-3.8,0-6.8,3.1-6.8,6.8c0,3.8,3.1,6.8,6.8,6.8c3.8,0,6.8-3.1,6.8-6.8C23.7,13.3,20.6,10.2,16.9,10.2z"/>
			<path class="st3" d="M24.2,8.7c0.2,0,0.3,0,0.5,0.1s0.3,0.2,0.4,0.3c0.1,0.1,0.2,0.3,0.3,0.4c0.1,0.2,0.1,0.3,0.1,0.5
				s0,0.3-0.1,0.5c-0.1,0.2-0.2,0.3-0.3,0.4c-0.1,0.1-0.3,0.2-0.4,0.3s-0.3,0.1-0.5,0.1s-0.3,0-0.5-0.1s-0.3-0.2-0.4-0.3
				c-0.1-0.1-0.2-0.3-0.3-0.4c-0.1-0.2-0.1-0.3-0.1-0.5s0-0.3,0.1-0.5c0.1-0.2,0.2-0.3,0.3-0.4c0.1-0.1,0.3-0.2,0.4-0.3
				S24,8.7,24.2,8.7z"/>
		</g>
	</g>
	<g class="st1">
		<path class="st7" d="M25.5,33.8H8.2c-4.5,0-8.2-3.6-8.2-8.2V8.3c0-4.5,3.6-8.2,8.2-8.2h17.4c4.5,0,8.2,3.6,8.2,8.2v17.4
			C33.7,30.2,30,33.8,25.5,33.8z"/>
		<path class="st3" d="M27.4,11.6c-0.3-1.6-1.9-2.2-3.2-2.3C23,9.1,19.1,9,16.9,9c-2.3,0-6.1,0.2-7.4,0.3c-1.3,0.1-2.8,0.7-3.2,2.3
			C6,13.2,5.9,14.9,5.9,17c0,2.2,0.1,3.8,0.4,5.4c0.3,1.6,1.9,2.2,3.2,2.3c1.2,0.1,5.1,0.3,7.4,0.3c2.3,0,6.1-0.2,7.4-0.3
			c1.3-0.1,2.8-0.7,3.2-2.3c0.3-1.6,0.4-3.3,0.4-5.4C27.8,14.9,27.7,13.2,27.4,11.6z"/>
		<polygon class="st7" points="13.8,20.5 19.9,17 13.8,13.6 		"/>
	</g>
</g>
<g id="Camada_4_1_" class="st0">
	<g class="st1">
		<path class="st8" d="M25.5,33.8H8.2c-4.5,0-8.2-3.6-8.2-8.2V8.3c0-4.5,3.6-8.2,8.2-8.2h17.4c4.5,0,8.2,3.6,8.2,8.2v17.4
			C33.7,30.2,30,33.8,25.5,33.8z"/>
		<path class="st5" d="M22.1,19.2c-0.3-0.1-1.7-0.8-1.9-0.9c-0.3-0.1-0.4-0.1-0.6,0.1c-0.2,0.3-0.7,0.9-0.9,1.1
			c-0.2,0.2-0.3,0.2-0.6,0.1c-0.3-0.1-1.2-0.4-2.3-1.4c-0.8-0.8-1.4-1.7-1.6-2c-0.2-0.3,0-0.4,0.1-0.6c0.3-0.4,0.6-0.8,0.7-1
			c0.1-0.2,0-0.4,0-0.5c-0.1-0.1-0.6-1.5-0.9-2.1c-0.2-0.6-0.5-0.5-0.6-0.5c-0.2,0-0.4,0-0.5,0c-0.2,0-0.5,0.1-0.8,0.4
			c-0.3,0.3-1,1-1,2.4c0,1.4,1,2.7,1.2,2.9c0.1,0.2,2,3.1,4.8,4.3c0.7,0.3,1.2,0.5,1.6,0.6c0.7,0.2,1.3,0.2,1.8,0.1
			c0.5-0.1,1.7-0.7,1.9-1.3c0.2-0.7,0.2-1.2,0.2-1.3C22.6,19.4,22.4,19.3,22.1,19.2L22.1,19.2z M16.9,26.2L16.9,26.2
			c-1.7,0-3.4-0.5-4.8-1.3l-0.3-0.2l-3.6,0.9l1-3.5l-0.2-0.4c-0.9-1.5-1.4-3.2-1.4-5c0-5.2,4.2-9.4,9.4-9.4c2.5,0,4.9,1,6.7,2.8
			c1.8,1.8,2.8,4.2,2.8,6.7C26.3,22,22.1,26.2,16.9,26.2L16.9,26.2z M24.9,8.8c-2.1-2.1-5-3.3-8-3.3c-6.3,0-11.3,5.1-11.3,11.3
			c0,2,0.5,4,1.5,5.7l-1.6,5.9l6-1.6c1.7,0.9,3.5,1.4,5.4,1.4h0c6.3,0,11.3-5.1,11.3-11.3C28.3,13.8,27.1,10.9,24.9,8.8L24.9,8.8z"
			/>
	</g>
</g>
<g id="Camada_3_1_" class="st0">
	<g class="st1">
		
			<linearGradient id="SVGID_2_" gradientUnits="userSpaceOnUse" x1="-1111.8169" y1="4940.9565" x2="-1111.5601" y2="4901.144" gradientTransform="matrix(1 0 0 -1 1128.5464 4938.5049)">
			<stop  offset="0" style="stop-color:#2B3990"/>
			<stop  offset="0.2243" style="stop-color:#92278F"/>
			<stop  offset="0.5114" style="stop-color:#DA1C5C"/>
			<stop  offset="0.5662" style="stop-color:#DB215B"/>
			<stop  offset="0.6343" style="stop-color:#DD3158"/>
			<stop  offset="0.7094" style="stop-color:#E14A53"/>
			<stop  offset="0.7896" style="stop-color:#E66D4C"/>
			<stop  offset="0.8738" style="stop-color:#ED9B43"/>
			<stop  offset="0.96" style="stop-color:#F5D138"/>
			<stop  offset="1" style="stop-color:#F9ED32"/>
		</linearGradient>
		<path class="st9" d="M25.5,33.8H8.2c-4.5,0-8.2-3.6-8.2-8.2V8.3c0-4.5,3.6-8.2,8.2-8.2h17.4c4.5,0,8.2,3.6,8.2,8.2v17.4
			C33.7,30.2,30,33.8,25.5,33.8z"/>
		<path class="st3" d="M27.8,23.5c0,2.5-2,4.5-4.5,4.5H10.4c-2.5,0-4.5-2-4.5-4.5V10.5C5.9,8,7.9,6,10.4,6h12.9c2.5,0,4.5,2,4.5,4.5
			V23.5z M23.3,3.7H10.4c-3.8,0-6.9,3.1-6.9,6.9v12.9c0,3.8,3.1,6.9,6.9,6.9h12.9c3.8,0,6.9-3.1,6.9-6.9V10.5
			C30.2,6.8,27.1,3.7,23.3,3.7z"/>
		<path class="st3" d="M16.8,21.5c-2.5,0-4.5-2-4.5-4.5s2-4.5,4.5-4.5c2.5,0,4.5,2,4.5,4.5S19.3,21.5,16.8,21.5z M16.8,10.2
			c-3.8,0-6.8,3.1-6.8,6.8c0,3.8,3.1,6.8,6.8,6.8c3.8,0,6.8-3.1,6.8-6.8C23.7,13.3,20.6,10.2,16.8,10.2z"/>
		<path class="st3" d="M24.2,8.7c0.2,0,0.3,0,0.5,0.1s0.3,0.2,0.4,0.3c0.1,0.1,0.2,0.3,0.3,0.4c0.1,0.2,0.1,0.3,0.1,0.5
			s0,0.3-0.1,0.5c-0.1,0.2-0.2,0.3-0.3,0.4c-0.1,0.1-0.3,0.2-0.4,0.3s-0.3,0.1-0.5,0.1c-0.2,0-0.3,0-0.5-0.1s-0.3-0.2-0.4-0.3
			c-0.1-0.1-0.2-0.3-0.3-0.4c-0.1-0.2-0.1-0.3-0.1-0.5s0-0.3,0.1-0.5c0.1-0.2,0.2-0.3,0.3-0.4c0.1-0.1,0.3-0.2,0.4-0.3
			S24,8.7,24.2,8.7z"/>
	</g>
</g>
<g id="Camada_2">
	<g>
		<path class="st10" d="M25.5,33.8H8.2c-4.5,0-8.2-3.6-8.2-8.2V8.3c0-4.5,3.6-8.2,8.2-8.2h17.4c4.5,0,8.2,3.6,8.2,8.2v17.4
			C33.7,30.2,30,33.8,25.5,33.8z"/>
		<path class="st3" d="M28.2,16.5h-4.3v-2.6c0-0.9,0.8-1.7,1.7-1.7h2.6V6.6h-3c-3.7,0-6.8,3-6.8,6.8v3.1h-2.7v4.7h2.7v12.7h5.5V21.1
			h4.3V16.5z"/>
	</g>
</g>
</svg>
