<?xml version="1.0" encoding="utf-8"?>
<!-- Generator: Adobe Illustrator 23.0.1, SVG Export Plug-In . SVG Version: 6.00 Build 0)  -->
<svg version="1.1" xmlns="http://www.w3.org/2000/svg" xmlns:xlink="http://www.w3.org/1999/xlink" x="0px" y="0px" width="33.71px"
	 height="34px" viewBox="0 0 33.71 34" style="enable-background:new 0 0 33.71 34;" xml:space="preserve">
<style type="text/css">
	.st0{display:none;}
	.st1{display:inline;}
	.st2{fill:#C23334;}
	.st3{fill:#FFFFFF;}
	.st4{fill:#1C4385;}
	.st5{fill:#509D3F;}
	.st6{fill-rule:evenodd;clip-rule:evenodd;fill:#FFFFFF;}
	.st7{fill:url(#SVGID_1_);}
</style>
<g id="Camada_1" class="st0">
	<g class="st1">
		<path class="st2" d="M25.52,33.84H8.17C3.66,33.84,0,30.2,0,25.68V8.32c0-4.5,3.64-8.17,8.16-8.17h17.37
			c4.5,0,8.16,3.64,8.16,8.17v17.37C33.69,30.2,30.03,33.84,25.52,33.84z"/>
		<path class="st3" d="M27.41,11.57c-0.35-1.64-1.9-2.24-3.18-2.33c-1.23-0.1-5.12-0.28-7.37-0.28c-2.25,0-6.14,0.18-7.37,0.28
			c-1.29,0.1-2.83,0.7-3.18,2.33c-0.33,1.61-0.4,3.3-0.4,5.45c0,2.15,0.07,3.83,0.4,5.45c0.35,1.64,1.9,2.24,3.18,2.34
			c1.23,0.1,5.12,0.28,7.37,0.28c2.25,0,6.14-0.18,7.37-0.28c1.29-0.1,2.83-0.7,3.18-2.34c0.33-1.61,0.4-3.3,0.4-5.45
			C27.81,14.86,27.74,13.17,27.41,11.57z"/>
		<polygon class="st2" points="13.76,20.46 19.93,17.02 13.76,13.57 		"/>
	</g>
</g>
<g id="Camada_2" class="st0">
	<g class="st1">
		<path class="st4" d="M25.52,33.84H8.17C3.66,33.84,0,30.2,0,25.68V8.32c0-4.5,3.64-8.16,8.16-8.16h17.37
			c4.5,0,8.16,3.64,8.16,8.16v17.37C33.69,30.2,30.03,33.84,25.52,33.84z"/>
		<path class="st3" d="M28.22,16.47H23.9v-2.62c0-0.94,0.76-1.72,1.72-1.72h2.6v-5.5h-3.05c-3.74,0-6.77,3.03-6.77,6.77v3.06h-2.68
			v4.65h2.68v12.72h5.5V21.12h4.32V16.47z"/>
	</g>
</g>
<g id="Camada_3">
	<g>
		<path class="st5" d="M25.52,33.84H8.17C3.66,33.84,0,30.2,0,25.68V8.32c0-4.5,3.64-8.16,8.16-8.16h17.37
			c4.5,0,8.16,3.64,8.16,8.16v17.37C33.69,30.2,30.03,33.84,25.52,33.84z"/>
		<path class="st6" d="M22.08,19.17c-0.28-0.14-1.68-0.83-1.94-0.92c-0.26-0.09-0.45-0.14-0.64,0.14c-0.19,0.28-0.73,0.92-0.9,1.11
			c-0.17,0.19-0.33,0.21-0.61,0.07c-0.28-0.14-1.2-0.44-2.28-1.41c-0.84-0.75-1.41-1.68-1.58-1.96c-0.17-0.28,0-0.42,0.12-0.58
			c0.31-0.38,0.61-0.78,0.71-0.97c0.09-0.19,0.05-0.35-0.02-0.5c-0.07-0.14-0.64-1.54-0.87-2.1c-0.23-0.55-0.46-0.48-0.64-0.49
			c-0.17-0.01-0.35-0.01-0.54-0.01c-0.19,0-0.5,0.07-0.76,0.35c-0.26,0.28-0.99,0.97-0.99,2.36c0,1.4,1.02,2.74,1.16,2.93
			c0.14,0.19,2,3.05,4.84,4.28c0.68,0.29,1.2,0.47,1.62,0.6c0.68,0.22,1.3,0.19,1.79,0.11c0.54-0.08,1.68-0.69,1.91-1.35
			c0.24-0.66,0.24-1.23,0.17-1.35C22.55,19.39,22.36,19.32,22.08,19.17L22.08,19.17z M16.91,26.24L16.91,26.24
			c-1.7,0-3.35-0.46-4.8-1.31l-0.34-0.2l-3.57,0.94l0.95-3.48l-0.22-0.36c-0.94-1.5-1.44-3.24-1.44-5.02c0-5.2,4.23-9.43,9.43-9.43
			c2.52,0,4.89,0.98,6.67,2.77c1.78,1.78,2.76,4.15,2.76,6.67C26.33,22.01,22.1,26.24,16.91,26.24L16.91,26.24z M24.93,8.78
			c-2.14-2.14-4.99-3.33-8.02-3.33c-6.25,0-11.34,5.09-11.34,11.34c0,2,0.52,3.95,1.51,5.67l-1.61,5.88l6.01-1.58
			c1.66,0.9,3.52,1.38,5.42,1.38h0c6.25,0,11.34-5.09,11.34-11.34C28.25,13.78,27.07,10.93,24.93,8.78L24.93,8.78z"/>
	</g>
</g>
<g id="Camada_4" class="st0">
	<g class="st1">
		
			<linearGradient id="SVGID_1_" gradientUnits="userSpaceOnUse" x1="-1111.8182" y1="910.9566" x2="-1111.5614" y2="871.144" gradientTransform="matrix(1 0 0 -1 1128.5464 908.5049)">
			<stop  offset="0" style="stop-color:#293786"/>
			<stop  offset="0.2243" style="stop-color:#872A84"/>
			<stop  offset="0.5114" style="stop-color:#C02E5A"/>
			<stop  offset="0.5662" style="stop-color:#C03059"/>
			<stop  offset="0.6343" style="stop-color:#C23A57"/>
			<stop  offset="0.7094" style="stop-color:#C64D53"/>
			<stop  offset="0.7896" style="stop-color:#CD6A4F"/>
			<stop  offset="0.8738" style="stop-color:#DA9449"/>
			<stop  offset="0.96" style="stop-color:#EAC93F"/>
			<stop  offset="1" style="stop-color:#EDE33E"/>
		</linearGradient>
		<path class="st7" d="M25.52,33.84H8.17C3.66,33.84,0,30.2,0,25.68V8.32c0-4.5,3.64-8.17,8.16-8.17h17.37
			c4.5,0,8.16,3.64,8.16,8.17v17.37C33.69,30.2,30.03,33.84,25.52,33.84z"/>
		<path class="st3" d="M27.84,23.46c0,2.5-2.04,4.52-4.52,4.52H10.4c-2.5,0-4.52-2.04-4.52-4.52V10.54c0-2.5,2.04-4.52,4.52-4.52
			h12.92c2.5,0,4.52,2.04,4.52,4.52V23.46z M23.3,3.67H10.39c-3.79,0-6.87,3.08-6.87,6.87v12.92c0,3.79,3.08,6.87,6.87,6.87H23.3
			c3.79,0,6.87-3.08,6.87-6.87V10.54C30.18,6.76,27.1,3.67,23.3,3.67z"/>
		<path class="st3" d="M16.85,21.47c-2.47,0-4.47-2-4.47-4.47s2-4.47,4.47-4.47c2.47,0,4.47,2,4.47,4.47S19.31,21.47,16.85,21.47z
			 M16.85,10.19c-3.76,0-6.81,3.06-6.81,6.81c0,3.76,3.06,6.81,6.81,6.81c3.76,0,6.81-3.06,6.81-6.81
			C23.67,13.26,20.6,10.19,16.85,10.19z"/>
		<path class="st3" d="M24.2,8.69c0.18,0,0.34,0.03,0.51,0.1s0.31,0.16,0.43,0.29c0.12,0.12,0.22,0.27,0.29,0.43
			c0.07,0.16,0.1,0.33,0.1,0.51s-0.03,0.34-0.1,0.51c-0.07,0.16-0.16,0.31-0.29,0.43c-0.12,0.12-0.27,0.22-0.43,0.29
			s-0.33,0.1-0.51,0.1c-0.18,0-0.34-0.03-0.51-0.1s-0.31-0.16-0.43-0.29c-0.12-0.12-0.22-0.27-0.29-0.43
			c-0.07-0.16-0.1-0.33-0.1-0.51s0.03-0.34,0.1-0.51c0.07-0.16,0.16-0.31,0.29-0.43c0.12-0.12,0.27-0.22,0.43-0.29
			S24.02,8.69,24.2,8.69z"/>
	</g>
</g>
</svg>
