<?xml version="1.0" encoding="utf-8"?>
<?xml-stylesheet type="text/css" href="../css/style.css" ?>
<!-- Generator: Adobe Illustrator 23.0.1, SVG Export Plug-In . SVG Version: 6.00 Build 0)  -->
<svg version="1.1" id="Camada_1" xmlns="http://www.w3.org/2000/svg" xmlns:xlink="http://www.w3.org/1999/xlink" x="0px" y="0px"
	 width="200px" height="62.43px" viewBox="0 0 200 62.43" style="enable-background:new 0 0 200 62.43;" xml:space="preserve">

<g>
	<path class="st0" d="M10.61,16.45H46.7c0.1,0,0.17,0.1,0.14,0.2l-2.19,5.57c-0.41,1.04-1.15,1.92-2.12,2.49l-22.01,13.1
		c-0.12,0.07-0.07,0.26,0.07,0.26l16.08,0.3c0.46,0.01,0.77,0.47,0.6,0.9l-2.62,6.69H0l2.24-5.04c0.92-2.06,2.46-3.77,4.41-4.9
		l17.16-9.94c1.19-0.69,2.47-1.18,3.81-1.47l2.6-0.56l-18.8-0.09c-0.47,0-0.86-0.39-0.85-0.86L10.61,16.45z"/>
	<path class="st0" d="M98.04,16.36h13.31l-3.43,8.19c-0.15,0.36-0.5,0.6-0.9,0.61l-3.5,0.06c-0.05,0-0.07,0.07-0.03,0.1l2.94,1.68
		c0.21,0.12,0.3,0.38,0.21,0.6l-6.83,16.33c-0.54,1.29-1.8,2.13-3.2,2.13h-8.76c-0.07,0-0.12-0.08-0.09-0.14L97.9,22.88
		c0.14-0.32,0.21-0.66,0.21-1.01L98.04,16.36z"/>
	<path class="st0" d="M144.07,18.41l-5.95,13.42c-0.07,0.16-0.29,0.16-0.37,0l-6.82-14.64c-0.24-0.51-0.75-0.84-1.32-0.84h-12.86
		l0.06,5.51c0,0.35-0.07,0.69-0.21,1.01l-10.14,23.03c-0.03,0.07,0.02,0.14,0.09,0.14h8.76c1.4,0,2.66-0.84,3.2-2.13l4.48-10.76
		c0.2-0.49,0.32-1,0.34-1.53l0.24-5.03c0-0.09,0.13-0.12,0.17-0.03l8.8,19.09c0.11,0.24,0.35,0.39,0.61,0.39h7.67
		c1.51,0,2.87-0.91,3.45-2.3l11.26-27.03c0.07-0.18-0.06-0.37-0.25-0.37h-8.07C145.86,16.36,144.63,17.17,144.07,18.41z"/>
	<path class="st0" d="M199.99,16.63l-2.35,5.44c-0.54,1.24-1.76,2.05-3.12,2.05h-26.98c-0.11,0-0.15,0.14-0.05,0.2l2.32,1.37
		c0.15,0.09,0.21,0.27,0.14,0.43l-4.75,11.14c-0.13,0.32,0.1,0.67,0.44,0.67h14.18c0.2,0,0.37-0.12,0.44-0.3l0.85-2.13
		c0.16-0.39-0.13-0.81-0.55-0.81h-7.59c-0.31,0-0.51-0.32-0.39-0.6l2.77-6.33c0.07-0.17,0.24-0.28,0.42-0.28h16.58
		c1.39,0,2.34,1.42,1.8,2.7l-5.62,13.42c-0.62,1.48-2.07,2.45-3.68,2.45h-26.08c-3.81,0-6.4-3.89-4.92-7.4l5.72-13.61
		c2.2-5.23,7.32-8.63,12.99-8.63h27.27C199.95,16.39,200.03,16.51,199.99,16.63z"/>
	<g>
		<path class="st1" d="M81.84,18.05L81.84,18.05L81.84,18.05c-3.63-4.06-8.89-6.61-14.75-6.61c-10.92,0-19.78,8.85-19.78,19.78
			c0,1.69,0.21,3.33,0.61,4.9c-0.13-0.81-0.2-1.64-0.2-2.49c0-8.6,6.97-15.57,15.57-15.57c1.03,0,2.04,0.1,3.02,0.29L26.09,62.43
			C26.09,62.43,81.98,18.21,81.84,18.05z"/>
		<path class="st1" d="M52.28,44.38L52.28,44.38c3.63,4.06,8.89,6.61,14.75,6.61c10.92,0,19.78-8.85,19.78-19.78
			c0-1.69-0.21-3.33-0.61-4.9c0.13,0.81,0.2,1.64,0.2,2.49c0,8.6-6.97,15.57-15.57,15.57c-1.03,0-2.04-0.1-3.02-0.29L108.03,0
			C108.03,0,52.14,44.22,52.28,44.38z"/>
	</g>
</g>
</svg>
