<?xml version="1.0" encoding="utf-8"?>
<?xml-stylesheet type="text/css" href="../css/style.css" ?>
<!-- Generator: Adobe Illustrator 23.0.1, SVG Export Plug-In . SVG Version: 6.00 Build 0)  -->
<svg version="1.1" id="Camada_1" xmlns="http://www.w3.org/2000/svg" xmlns:xlink="http://www.w3.org/1999/xlink" x="0px" y="0px"
	 width="50%" height="50%" viewBox="0 0 1986 620" style="enable-background:new 0 0 1986 620;" xml:space="preserve">

<g>
	<path class="st0" d="M105.2,163.4h358.5c1,0,1.7,1,1.3,2l-21.7,55.4c-4.1,10.4-11.5,19.1-21,24.7L203.7,375.5
		c-1.2,0.7-0.7,2.6,0.7,2.6l159.7,3c4.6,0.1,7.7,4.7,6,9l-26,66.5H-0.2l22.3-50.1c9.1-20.4,24.4-37.5,43.8-48.7l170.4-98.7
		c11.8-6.8,24.6-11.8,37.9-14.6l25.8-5.6L113.3,238c-4.7,0-8.5-3.9-8.5-8.6L105.2,163.4z"/>
	<path class="st0" d="M973.5,162.5h132.2l-34.1,81.4c-1.5,3.6-5,6-8.9,6l-34.8,0.6c-0.5,0-0.7,0.7-0.2,1l29.2,16.7
		c2.1,1.2,3,3.8,2,6l-67.9,162.2c-5.4,12.8-17.9,21.2-31.8,21.2h-87c-0.7,0-1.2-0.8-0.9-1.4l100.7-228.8c1.4-3.2,2.1-6.6,2-10
		L973.5,162.5z"/>
	<path class="st0" d="M1430.7,182.9l-59.1,133.3c-0.7,1.6-2.9,1.6-3.7,0l-67.7-145.4c-2.4-5.1-7.5-8.3-13.1-8.3h-127.8l0.6,54.7
		c0,3.4-0.7,6.9-2,10L1057.3,456c-0.3,0.7,0.2,1.4,0.9,1.4h87c13.9,0,26.4-8.3,31.8-21.2l44.5-106.9c2-4.8,3.2-10,3.4-15.2l2.4-49.9
		c0-0.9,1.3-1.2,1.7-0.3l87.4,189.5c1.1,2.4,3.5,3.9,6.1,3.9h76.2c15,0,28.5-9,34.2-22.8l111.8-268.5c0.7-1.7-0.6-3.7-2.4-3.7h-80.2
		C1448.5,162.5,1436.2,170.5,1430.7,182.9z"/>
	<path class="st0" d="M1986,165.1l-23.4,54c-5.3,12.4-17.5,20.4-31,20.4h-267.9c-1.1,0-1.5,1.4-0.5,2l23,13.6
		c1.5,0.9,2.1,2.7,1.4,4.2L1640.5,370c-1.3,3.1,1,6.6,4.4,6.6h140.8c1.9,0,3.7-1.2,4.4-3l8.4-21.1c1.5-3.9-1.3-8.1-5.5-8.1h-75.4
		c-3.1,0-5.1-3.1-3.9-5.9l27.5-62.9c0.7-1.7,2.4-2.7,4.2-2.7h164.7c13.8,0,23.2,14.1,17.9,26.9l-55.8,133.3
		c-6.2,14.7-20.6,24.3-36.6,24.3h-259c-37.9,0-63.5-38.6-48.8-73.5l56.8-135.2c21.8-52,72.7-85.8,129.1-85.8h270.9
		C1985.7,162.7,1986.5,164,1986,165.1z"/>
	<g>
		<path class="st1" d="M812.6,179.2L812.6,179.2L812.6,179.2c-36-40.3-88.3-65.6-146.5-65.6c-108.5,0-196.4,87.9-196.4,196.4
			c0,16.8,2.1,33.1,6.1,48.7c-1.3-8-2-16.3-2-24.7c0-85.4,69.2-154.7,154.7-154.7c10.2,0,20.3,1,30,2.9L258.9,620
			C258.9,620,814,180.8,812.6,179.2z"/>
		<path class="st1" d="M519.1,440.8L519.1,440.8c36,40.3,88.3,65.6,146.5,65.6C774.1,506.4,862,418.5,862,310
			c0-16.8-2.1-33.1-6.1-48.7c1.3,8,2,16.3,2,24.7c0,85.4-69.2,154.7-154.7,154.7c-10.2,0-20.3-1-30-2.9L1072.8,0
			C1072.8,0,517.7,439.2,519.1,440.8z"/>
	</g>
</g>
</svg>
